<svg xmlns="http://www.w3.org/2000/svg" width="1200" height="380" viewBox="0 0 1200 380">
<defs>
 <linearGradient id="bg" x2="1" y2="1"><stop stop-color="#0a1021"/><stop offset="1" stop-color="#151027"/></linearGradient>
 <linearGradient id="accent"><stop stop-color="#4ee7ec"/><stop offset="1" stop-color="#b889ff"/></linearGradient>
 <pattern id="grid" width="40" height="40" patternUnits="userSpaceOnUse"><path d="M40 0H0V40" fill="none" stroke="#7180b2" stroke-opacity=".09"/></pattern>
</defs>
<rect width="1200" height="380" rx="24" fill="url(#bg)"/>
<rect width="1200" height="380" rx="24" fill="url(#grid)"/>
<text x="64" y="80" fill="#71dde6" font-family="-apple-system,BlinkMacSystemFont,Segoe UI,sans-serif" font-size="14" letter-spacing="4">THE MOBILE DEVELOPER’S COMMAND DECK</text>
<text x="60" y="169" fill="#f4f6ff" font-family="-apple-system,BlinkMacSystemFont,Segoe UI,sans-serif" font-size="80" font-weight="700" letter-spacing="-3">DevBar</text>
<text x="64" y="218" fill="#aeb8d0" font-family="-apple-system,BlinkMacSystemFont,Segoe UI,sans-serif" font-size="23">Your simulators. One menu bar.</text>
<rect x="64" y="264" width="139" height="36" rx="18" fill="#102b35" stroke="#315b65"/>
<text x="84" y="288" fill="#a6f4f3" font-family="-apple-system,BlinkMacSystemFont,Segoe UI,sans-serif" font-size="15">macOS 14+</text>
<rect x="215" y="264" width="157" height="36" rx="18" fill="#201c3b" stroke="#50456a"/>
<text x="235" y="288" fill="#d4c6fa" font-family="-apple-system,BlinkMacSystemFont,Segoe UI,sans-serif" font-size="15">iOS + Android</text>
<rect x="384" y="264" width="203" height="36" rx="18" fill="#142031" stroke="#3a4b64"/>
<text x="404" y="288" fill="#d5deef" font-family="-apple-system,BlinkMacSystemFont,Segoe UI,sans-serif" font-size="15">Menu bar · CLI · MCP</text>
<g transform="translate(780 44)">
 <rect x="20" y="0" width="190" height="286" rx="34" fill="#101c31" stroke="url(#accent)" stroke-width="3"/>
 <rect x="81" y="14" width="68" height="7" rx="3.5" fill="#31425c"/>
 <rect x="36" y="42" width="158" height="203" rx="15" fill="#0a1325"/>
 <path d="m78 115 24 23-24 23m36 0h30" fill="none" stroke="url(#accent)" stroke-width="7" stroke-linecap="round" stroke-linejoin="round"/>
 <circle cx="115" cy="266" r="5" fill="#61738f"/>
 <rect x="-18" y="181" width="260" height="63" rx="14" fill="#19233a" stroke="#526086"/>
 <circle cx="7" cy="212" r="5" fill="#56dfa4"/>
 <text x="25" y="218" fill="#bfe7eb" font-family="monospace" font-size="15">device ready</text>
 <path d="m194 205 7 7 13-15" fill="none" stroke="#56dfa4" stroke-width="3" stroke-linecap="round"/>
</g>
<text x="1136" y="343" text-anchor="end" fill="#62708b" font-family="-apple-system,BlinkMacSystemFont,Segoe UI,sans-serif" font-size="13">by Allen</text>
</svg>
